<?xml version="1.0" encoding="UTF-8"?>
<svg width="160px" height="40px" viewBox="0 0 160 40" version="1.1" xmlns="http://www.w3.org/2000/svg" xmlns:xlink="http://www.w3.org/1999/xlink">
    <!-- Generator: Sketch 49.3 (51167) - http://www.bohemiancoding.com/sketch -->
    <title>Artboard</title>
    <desc>Created with Sketch.</desc>
    <defs></defs>
    <g id="Artboard" stroke="none" stroke-width="1" fill="none" fill-rule="evenodd">
        <g id="very-satisfied" transform="translate(130.000000, 10.000000)" stroke="#ffffff">
            <circle id="head" stroke-width="1.5" cx="10" cy="10" r="9.25"></circle>
            <g id="mouth" transform="translate(3.000000, 11.000000)" stroke-linecap="round" stroke-linejoin="round" stroke-width="1.5">
                <path d="M7,5 C9.30274522,5 11.6256182,3.96393909 12.75,2 C12.9769698,1.60355553 13.0603032,0.93688886 13,0 L1,0 C0.935530741,0.933073529 1.01886407,1.5997402 1.25,2 C2.37458792,3.94745728 4.70693771,5 7,5 Z" id="lips"></path>
                <g id="teeth" transform="translate(4.000000, 0.000000)">
                    <path d="M1,0.842630543 L1,4.40609008" id="right"></path>
                    <path d="M5,0.593909922 L5,4.15736946" id="left"></path>
                </g>
            </g>
            <g id="eyes" transform="translate(5.000000, 5.000000)" stroke-linecap="round" stroke-linejoin="round">
                <path d="M6.5,2 C6.83248442,1 7.33248442,0.5 8,0.5 C8.66751558,0.5 9.16751558,1 9.5,2" id="right"></path>
                <path d="M0.5,2 C0.832484419,1 1.33248442,0.5 2,0.5 C2.66751558,0.5 3.16751558,1 3.5,2" id="left"></path>
            </g>
        </g>
        <g id="satisfied" transform="translate(100.000000, 10.000000)">
            <circle id="head" stroke="#ffffff" stroke-width="1.5" cx="10" cy="10" r="9.25"></circle>
            <path d="M6,14.5 C7,15.5 8.33333333,16 10,16 C11.6666667,16 13,15.5 14,14.5" id="mouth" stroke="#ffffff" stroke-width="1.5" stroke-linecap="round" stroke-linejoin="round"></path>
            <g id="eyes" transform="translate(6.000000, 6.000000)" fill="#ffffff">
                <circle id="right" cx="7" cy="1" r="1"></circle>
                <circle id="left" cx="1" cy="1" r="1"></circle>
            </g>
        </g>
        <g id="neutral" transform="translate(70.000000, 10.000000)">
            <circle id="head" stroke="#ffffff" stroke-width="1.5" cx="10" cy="10" r="9.25"></circle>
            <path d="M6,14.5 L14,14.5" id="mouth" stroke="#ffffff" stroke-width="1.5" stroke-linecap="round" stroke-linejoin="round"></path>
            <g id="eyes" transform="translate(6.000000, 6.000000)" fill="#ffffff">
                <circle id="right" cx="7" cy="1" r="1"></circle>
                <circle id="left" cx="1" cy="1" r="1"></circle>
            </g>
        </g>
        <g id="dissatisfied" transform="translate(40.000000, 10.000000)">
            <circle id="head" stroke="#ffffff" stroke-width="1.5" cx="10" cy="10" r="9.25"></circle>
            <path d="M6,15.5 C7.33333333,14.5 8.66666667,14 10,14 C11.3333333,14 12.6666667,14.5 14,15.5" id="mouth" stroke="#ffffff" stroke-width="1.5" stroke-linecap="round" stroke-linejoin="round"></path>
            <g id="eyes" transform="translate(6.000000, 6.000000)" fill="#ffffff">
                <circle id="right" cx="7" cy="1" r="1"></circle>
                <circle id="left" cx="1" cy="1" r="1"></circle>
            </g>
        </g>
        <g id="very-dissatisfied" transform="translate(10.000000, 10.000000)">
            <circle id="head" stroke="#ffffff" stroke-width="1.5" cx="10" cy="10" r="9.25"></circle>
            <path d="M6,15.5 C7.33333333,14.5 8.66666667,14 10,14 C11.3333333,14 12.6666667,14.5 14,15.5" id="mouth" stroke="#ffffff" stroke-width="1.5" stroke-linecap="round" stroke-linejoin="round"></path>
            <g id="eyes" transform="translate(6.000000, 6.000000)" fill="#ffffff">
                <circle id="right" cx="7" cy="1" r="1"></circle>
                <circle id="left" cx="1" cy="1" r="1"></circle>
            </g>
            <g id="brows" transform="translate(6.000000, 5.000000)" stroke="#ffffff" stroke-linecap="round" stroke-linejoin="round">
                <path d="M6.5,2 C6.83248442,1 7.33248442,0.5 8,0.5" id="right"></path>
                <path d="M0,0.5 C0.667515581,0.5 1.16751558,1 1.5,2" id="left"></path>
            </g>
        </g>
    </g>
</svg>
