<?xml version="1.0" encoding="UTF-8"?>
<svg width="27px" height="17px" viewBox="0 0 27 17" version="1.1" xmlns="http://www.w3.org/2000/svg" xmlns:xlink="http://www.w3.org/1999/xlink">
    <!-- Generator: Sketch 49.3 (51167) - http://www.bohemiancoding.com/sketch -->
    <title>Path</title>
    <desc>Created with Sketch.</desc>
    <defs></defs>
    <g id="Page-1" stroke="none" stroke-width="1" fill="none" fill-rule="evenodd">
        <path d="M26.4965647,1.01991345e-13 L16.3491068,1.01030295e-13 C16.0729644,1.01081022e-13 15.8491068,0.223857625 15.8491068,0.5 C15.8491068,0.622096303 15.8937822,0.739972984 15.9747073,0.831398574 L19.3783176,4.67664748 C19.5544516,4.87563591 19.5441566,5.17763958 19.3548806,5.36417153 L14.5555817,10.0938913 C14.358899,10.2877225 14.0423249,10.285411 13.8484937,10.0887283 C13.8482984,10.0885301 13.8481033,10.0883318 13.8479084,10.0881333 L9.22935337,5.38596038 C9.03672259,5.18984206 8.72189911,5.18601394 8.52455655,5.37739037 L0.151914377,13.4969079 C-0.0463213402,13.6891505 -0.0511797338,14.0056957 0.141062851,14.2039314 C0.142843549,14.2057676 0.144638311,14.2075901 0.146446979,14.2093988 L2.20665122,16.269603 C2.40191337,16.4648652 2.71849585,16.4648652 2.913758,16.269603 L8.40219529,10.7811657 C8.59035442,10.5930066 8.89291843,10.585181 9.09055271,10.7633618 L13.8596181,15.0630006 C14.0517331,15.2362053 14.3442378,15.234288 14.5340657,15.0585796 L22.0468304,8.10461725 C22.2475997,7.91878123 22.5604439,7.92880341 22.748907,8.12710878 L25.7838605,11.3205594 C25.9740922,11.5207257 26.2905722,11.5287793 26.4907385,11.3385477 C26.5858598,11.2481474 26.6416293,11.1239756 26.6460144,10.9928228 L26.9962854,0.516708267 C27.0055132,0.240720114 26.7892611,0.0095069651 26.513273,0.000279244156 C26.5077055,9.30943836e-05 26.5021353,1.02504421e-13 26.4965647,1.02584607e-13 Z" id="Path" fill="#5890FF"></path>
    </g>
</svg>